<?xml version="1.0" encoding="utf-8"?>
<!-- Generator: Adobe Illustrator 19.2.1, SVG Export Plug-In . SVG Version: 6.00 Build 0)  -->
<svg version="1.1" id="Layer_1" xmlns="http://www.w3.org/2000/svg" xmlns:xlink="http://www.w3.org/1999/xlink" x="0px" y="0px"
	 viewBox="0 0 51.5 77.3" style="enable-background:new 0 0 51.5 77.3;" xml:space="preserve">
<style type="text/css">
	.st0{fill:#FBF9F6;stroke:#837846;stroke-width:1.2329;stroke-miterlimit:10;}
	.st1{fill:#837846;stroke:#837846;stroke-width:0.7257;stroke-miterlimit:10;}
	.st2{fill:#837846;stroke:#837846;stroke-width:0.7019;stroke-miterlimit:10;}
	.st3{fill:#F4983C;stroke:#837846;stroke-width:1.1923;stroke-miterlimit:10;}
</style>
<g>
	<g>
		<path class="st0" d="M27,72.6l-2.8-3.1l26.3-11.2l-5.4-13.9L1.7,62.7c-1.2,0.5-1,4.2,0.5,8c1.5,3.8,3.7,6.5,4.9,5.9L20.8,71
			l4.4,4.1L27,72.6z"/>
		<path class="st0" d="M50.5,58.3c-0.7,0.3-2.6-2.5-4-6.4c-1.5-3.8-2.1-7.2-1.3-7.5c0.7-0.3,2.6,2.5,4,6.4
			C50.7,54.7,51.3,58,50.5,58.3z"/>
		<line class="st1" x1="29.8" y1="54" x2="38.8" y2="50.2"/>
		<line class="st1" x1="30.5" y1="59.7" x2="39.5" y2="55.9"/>
		<line class="st1" x1="20.9" y1="57.8" x2="24.1" y2="56.4"/>
		<line class="st1" x1="26.9" y1="57.2" x2="18.6" y2="60.8"/>
		<line class="st1" x1="43.6" y1="50.2" x2="35" y2="53.8"/>
		<line class="st1" x1="13.5" y1="62.1" x2="1.2" y2="67.2"/>
		<line class="st1" x1="2.3" y1="69.8" x2="16.7" y2="63.8"/>
		<line class="st1" x1="46.2" y1="53" x2="43.6" y2="54.1"/>
		<line class="st1" x1="3.3" y1="72.5" x2="18.8" y2="66"/>
		<line class="st1" x1="21.1" y1="65" x2="24" y2="63.7"/>
		<line class="st2" x1="26.1" y1="65.6" x2="47" y2="56.7"/>
		<line class="st2" x1="18.6" y1="68.7" x2="23.8" y2="66.5"/>
	</g>
	<path class="st3" d="M44.1,30.2c-3-17.4-12.5-15.1-13.9-24.5c-1.3-9.4-6.9-4.7-6.8,5.7c0.1,10.4,4.5,17.4-2.7,17.4
		s-5.1-6.6-4.1-9.4c1-2.8-2.5-1.9-5.5,3.8c-2.8,5.3-7.8,24.5,10.3,26.6c-0.4-1-0.5-2.2-0.2-3.9c1.1-6,4.3-5.2,4.8-8.5
		c0.5-3.3,2.4-1.6,2.4,2c0,3.6-1.6,6,0.9,6c2.5,0,1.8-2.3,1.4-3.3c-0.3-1,0.9-0.7,1.9,1.3c0.5,1,1.3,3.6,0.8,5.8
		C40.6,47.5,46.3,42.8,44.1,30.2z"/>
	<g>
		<path class="st0" d="M32.5,49.8l0.1,4.2L6.1,43.5L1,57.5l43.7,17.6c1.2,0.5,3.4-2.4,4.8-6.2c1.4-3.8,1.5-7.3,0.3-7.8l-13.7-5.6
			l-0.6-6.2L32.5,49.8z"/>
		<path class="st0" d="M6.1,43.5c0.7,0.3,0.2,3.7-1.2,7.5S1.7,57.8,1,57.5s-0.2-3.7,1.2-7.5S5.3,43.2,6.1,43.5z"/>
		<line class="st1" x1="18.4" y1="61.5" x2="9.3" y2="57.8"/>
		<line class="st1" x1="21.6" y1="56.8" x2="12.6" y2="53.2"/>
		<line class="st1" x1="27.4" y1="65" x2="24.2" y2="63.8"/>
		<line class="st1" x1="22.6" y1="61.1" x2="31" y2="64.5"/>
		<line class="st1" x1="5.8" y1="54.4" x2="14.5" y2="57.9"/>
		<line class="st1" x1="35.6" y1="67.1" x2="47.9" y2="72.2"/>
		<line class="st1" x1="48.9" y1="69.5" x2="34.4" y2="63.6"/>
		<line class="st1" x1="5.7" y1="50.4" x2="8.4" y2="51.5"/>
		<line class="st1" x1="49.8" y1="66.9" x2="34.2" y2="60.5"/>
		<line class="st1" x1="32" y1="59.6" x2="29" y2="58.5"/>
		<line class="st2" x1="28.6" y1="55.6" x2="7.6" y2="47.2"/>
		<line class="st2" x1="36.2" y1="58.6" x2="30.9" y2="56.5"/>
	</g>
</g>
</svg>
