<svg id="Layer_1" data-name="Layer 1" xmlns="http://www.w3.org/2000/svg" viewBox="0 0 104.91 15.55"><defs><style>.cls-1{fill:#fbf9f6;}</style></defs><title>logo-type</title><path class="cls-1" d="M12.75,2.21A3.33,3.33,0,0,0,11.43.88,7.66,7.66,0,0,0,7.62.15s-6,0-6.8,0L0,0.11l0.09,3H0.71l0,12H3.54v-5H4.23c0.34,0,.65,0,1,0,1,0,2.09,0,2.62,0a11.08,11.08,0,0,0,2.37-.29,3.77,3.77,0,0,0,3-3.28A10.72,10.72,0,0,0,13.26,4,4,4,0,0,0,12.75,2.21ZM9.93,6.52a5.5,5.5,0,0,1-2.2.54c-0.82,0-2.2.09-3.5,0.09H3.54v-4H4.4c0.85,0,1.89.08,3.16,0a4.71,4.71,0,0,1,2.31.38,0.6,0.6,0,0,1,.23.61C10.24,6,10,6.41,9.93,6.52Z"/><polygon class="cls-1" points="30.54 3.16 33.54 3.16 33.54 0.16 24.54 0.16 24.54 3.16 27.54 3.16 27.54 12.16 24.54 12.16 24.54 15.16 33.54 15.16 33.54 12.16 30.54 12.16 30.54 3.16"/><polygon class="cls-1" points="45.54 3.16 49.2 3.16 49.17 15.31 52.3 15.27 52.35 3.16 56.54 3.16 56.54 0.37 45.54 0.37 45.54 3.16"/><path class="cls-1" d="M78.47,9.42a4.79,4.79,0,0,1-.93,1.47,3.9,3.9,0,0,1-5.78,0A4.64,4.64,0,0,1,70.54,7.7a4.74,4.74,0,0,1,1.21-3.16,3.85,3.85,0,0,1,2.91-1.27,3.89,3.89,0,0,1,2.88,1.27,4.4,4.4,0,0,1,1,1.86l0,0.06,2.6-2.06a7.81,7.81,0,0,0-1.38-2.12A7.12,7.12,0,0,0,77.51.62,7.19,7.19,0,0,0,74.66,0,7,7,0,0,0,69.5,2.29a7.65,7.65,0,0,0-1.58,2.45,8.13,8.13,0,0,0,0,6,7.35,7.35,0,0,0,1.58,2.45,6.58,6.58,0,0,0,2.31,1.66,7,7,0,0,0,2.85.62,7.09,7.09,0,0,0,5.16-2.29,8,8,0,0,0,1.47-2.23l0.08-.2L78.53,9.11Z"/><polygon class="cls-1" points="104.51 0.13 101.38 0.29 101.55 8.16 95.94 8.16 96.11 0.24 92.97 0.18 92.78 8.16 92.54 8.16 92.54 11.16 92.69 11.16 92.58 15.43 95.77 15.55 95.85 11.16 101.64 11.16 101.72 15.54 104.91 15.43 104.8 11.16 104.54 11.16 104.54 8.16 104.71 8.16 104.51 0.13"/></svg>