<?xml version="1.0" encoding="utf-8"?>
<!-- Generator: Adobe Illustrator 19.2.1, SVG Export Plug-In . SVG Version: 6.00 Build 0)  -->
<svg version="1.1" id="Layer_1" xmlns="http://www.w3.org/2000/svg" xmlns:xlink="http://www.w3.org/1999/xlink" x="0px" y="0px"
	 viewBox="0 0 88.6 70.2" style="enable-background:new 0 0 88.6 70.2;" xml:space="preserve">
<style type="text/css">
	.st0{fill:none;}
	.st1{fill:none;stroke:#FBF9F6;stroke-width:3.6;}
	.st2{fill:#FBF9F6;}
	.st3{fill:#837846;stroke:#837846;stroke-width:1.235;stroke-miterlimit:10;}
	.st4{fill:url(#SVGID_1_);}
	.st5{fill:#837846;}
	.st6{fill:#F4983C;}
</style>
<pattern  x="-551.4" y="-800.7" width="72" height="72" patternUnits="userSpaceOnUse" id="_x31_0_lpi_50_x25__2" viewBox="72.2 -72 72 72" style="overflow:visible;">
	<g>
		<rect x="72.2" y="-72" class="st0" width="72" height="72"/>
		<g>
			<line class="st1" x1="144" y1="-3.6" x2="216.5" y2="-3.6"/>
			<line class="st1" x1="144" y1="-18" x2="216.5" y2="-18"/>
			<line class="st1" x1="144" y1="-32.4" x2="216.5" y2="-32.4"/>
			<line class="st1" x1="144" y1="-46.8" x2="216.5" y2="-46.8"/>
			<line class="st1" x1="144" y1="-61.2" x2="216.5" y2="-61.2"/>
			<line class="st1" x1="144" y1="-10.8" x2="216.5" y2="-10.8"/>
			<line class="st1" x1="144" y1="-25.2" x2="216.5" y2="-25.2"/>
			<line class="st1" x1="144" y1="-39.6" x2="216.5" y2="-39.6"/>
			<line class="st1" x1="144" y1="-54" x2="216.5" y2="-54"/>
			<line class="st1" x1="144" y1="-68.4" x2="216.5" y2="-68.4"/>
		</g>
		<g>
			<line class="st1" x1="72" y1="-3.6" x2="144.5" y2="-3.6"/>
			<line class="st1" x1="72" y1="-18" x2="144.5" y2="-18"/>
			<line class="st1" x1="72" y1="-32.4" x2="144.5" y2="-32.4"/>
			<line class="st1" x1="72" y1="-46.8" x2="144.5" y2="-46.8"/>
			<line class="st1" x1="72" y1="-61.2" x2="144.5" y2="-61.2"/>
			<line class="st1" x1="72" y1="-10.8" x2="144.5" y2="-10.8"/>
			<line class="st1" x1="72" y1="-25.2" x2="144.5" y2="-25.2"/>
			<line class="st1" x1="72" y1="-39.6" x2="144.5" y2="-39.6"/>
			<line class="st1" x1="72" y1="-54" x2="144.5" y2="-54"/>
			<line class="st1" x1="72" y1="-68.4" x2="144.5" y2="-68.4"/>
		</g>
		<g>
			<line class="st1" x1="0" y1="-3.6" x2="72.5" y2="-3.6"/>
			<line class="st1" x1="0" y1="-18" x2="72.5" y2="-18"/>
			<line class="st1" x1="0" y1="-32.4" x2="72.5" y2="-32.4"/>
			<line class="st1" x1="0" y1="-46.8" x2="72.5" y2="-46.8"/>
			<line class="st1" x1="0" y1="-61.2" x2="72.5" y2="-61.2"/>
			<line class="st1" x1="0" y1="-10.8" x2="72.5" y2="-10.8"/>
			<line class="st1" x1="0" y1="-25.2" x2="72.5" y2="-25.2"/>
			<line class="st1" x1="0" y1="-39.6" x2="72.5" y2="-39.6"/>
			<line class="st1" x1="0" y1="-54" x2="72.5" y2="-54"/>
			<line class="st1" x1="0" y1="-68.4" x2="72.5" y2="-68.4"/>
		</g>
	</g>
</pattern>
<g>
	<g>
		<g>
			<path class="st2" d="M11.1,58.6c-0.3-0.5-0.7-0.9-1.2-1.2c-0.8-0.4-1.8-0.6-3.3-0.6c0,0-5.2,0-5.9,0l-0.7,0l0.1,2.7l0.5,0l0,10.7
				l2.8,0l0-4.8l0.3,0c0.3,0,0.6,0,0.8,0c0.9,0,1.8,0,2.3,0c0.8,0,1.5-0.1,2.1-0.2c0.8-0.2,1.4-0.5,1.8-1c0.4-0.5,0.7-1.1,0.8-1.8
				c0.1-0.6,0.1-1.3,0-2.2C11.5,59.5,11.4,59,11.1,58.6z M8.7,62.4c-0.2,0.3-1.5,0.3-1.9,0.4c-0.7,0-1.9,0-3.1,0l-0.3,0l0-3.1l0.5,0
				c0.7,0,1.6,0,2.8,0c1.2,0,1.8,0.1,2,0.3c0.1,0.1,0.2,0.2,0.2,0.5C8.9,61.9,8.7,62.3,8.7,62.4z"/>
		</g>
		<g>
			<polygon class="st2" points="26.5,59.4 28.6,59.4 28.6,56.8 21.6,56.8 21.6,59.4 23.7,59.4 23.7,67.5 21.5,67.5 21.5,70.1 
				28.7,70.1 28.7,67.5 26.5,67.5 			"/>
		</g>
		<g>
			<polygon class="st2" points="39,59.8 42.9,59.8 42.9,70.2 45.6,70.2 45.7,59.8 49.6,59.8 49.6,57 39,57 			"/>
		</g>
		<g>
			<path class="st2" d="M66.4,64.9c-0.2,0.5-0.4,0.9-0.8,1.3c-0.7,0.7-1.6,1.1-2.5,1.1c-1,0-1.8-0.4-2.5-1.1
				c-0.7-0.7-1.1-1.7-1.1-2.8c0-1,0.4-2,1.1-2.8c0.7-0.7,1.5-1.1,2.5-1.1c1,0,1.8,0.4,2.5,1.1c0.4,0.5,0.8,1,0.9,1.6l0,0l2.3-1.8
				c-0.3-0.7-0.7-1.3-1.2-1.8c-0.6-0.6-1.3-1.1-2-1.5c-0.8-0.3-1.6-0.5-2.5-0.5c-0.8,0-1.7,0.2-2.5,0.5c-0.8,0.4-1.5,0.8-2,1.5
				c-0.6,0.6-1,1.3-1.4,2.1c-0.3,0.8-0.5,1.7-0.5,2.6c0,0.9,0.2,1.8,0.5,2.6c0.3,0.8,0.8,1.6,1.4,2.1c0.5,0.6,1.2,1.1,2,1.5
				c0.8,0.3,1.6,0.5,2.5,0.5c0.9,0,1.7-0.2,2.5-0.5c0.8-0.3,1.5-0.8,2-1.5c0.5-0.5,0.9-1.2,1.3-1.9L69,66l-2.5-1.4L66.4,64.9z"/>
		</g>
		<g>
			<polygon class="st2" points="88.1,56.7 85.4,56.8 85.6,63.6 80.7,63.6 80.8,56.8 78.1,56.7 77.9,63.6 77.6,63.6 77.6,66.4 
				77.8,66.4 77.7,70.1 80.5,70.2 80.6,66.4 85.6,66.4 85.7,70.2 88.5,70.1 88.4,66.4 88.6,66.4 88.6,63.6 88.3,63.6 			"/>
		</g>
	</g>
	<g>
		<g>
			<path class="st2" d="M33.3,5c-0.4-2.1,0.8-4.2,2.7-5C35.5,0,35,0,34.4,0.1c-2.6,0.5-4.3,2.9-3.8,5.5C31,8.1,33.5,9.8,36,9.3
				c0.6-0.1,1.1-0.3,1.5-0.6C35.5,8.7,33.7,7.2,33.3,5z"/>
		</g>
		<g>
			<path class="st2" d="M66.6,18.8c0,0,0-0.4-0.4-0.9c-0.3-0.5-0.8-0.7-0.8-0.7s0.5-0.3,0.8-0.7c0.3-0.5,0.4-0.9,0.4-0.9
				s0,0.4,0.4,0.9c0.3,0.5,0.8,0.7,0.8,0.7s-0.5,0.3-0.8,0.7C66.6,18.4,66.6,18.8,66.6,18.8z"/>
		</g>
		<g>
			<path class="st2" d="M21.8,17.9c0,0,0-0.5-0.4-1.1c-0.3-0.5-0.9-0.8-0.9-0.8s0.6-0.3,0.9-0.8c0.4-0.6,0.4-1.1,0.4-1.1
				s0,0.5,0.4,1.1c0.3,0.5,0.9,0.8,0.9,0.8s-0.6,0.3-0.9,0.8C21.9,17.4,21.8,17.9,21.8,17.9z"/>
		</g>
		<g>
			<path class="st2" d="M62,5.8c0,0,0-0.3-0.3-0.7c-0.2-0.4-0.6-0.6-0.6-0.6s0.4-0.2,0.6-0.6C62,3.5,62,3.2,62,3.2s0,0.3,0.3,0.7
				c0.2,0.4,0.6,0.6,0.6,0.6s-0.4,0.2-0.6,0.6C62,5.5,62,5.8,62,5.8z"/>
		</g>
		<g>
			<path class="st2" d="M51.2,10.2c0,0,0-0.5-0.5-1.2c-0.4-0.6-1-1-1-1s0.6-0.4,1-1c0.5-0.7,0.5-1.2,0.5-1.2s0,0.5,0.5,1.2
				c0.4,0.6,1,1,1,1s-0.6,0.4-1,1C51.2,9.7,51.2,10.2,51.2,10.2z"/>
		</g>
	</g>
	<g>
		<path class="st3" d="M67.2,44.6l0.4,0.2l0.6-1.7l-0.4-0.2l-0.3,0.8c-1.3-0.6-2.6-1.7-3.6-2.6l0.5-0.6v0.2h0.5V40v-0.1v-3.7
			l0.7-0.8l0.4,0.4l0.1-0.1c0.8,0.6,3.6,3,5,3.8l-0.2,0.7l0.4,0.1l0.5-1.7l-0.4-0.1l-0.2,0.7c-1.4-0.8-4.2-3.1-5-3.7l0.1-0.1
			l-0.6-0.5l0,0c-0.2-0.1-10.9-9.8-17.7-16.9l0.1-0.2l-0.1-0.1c-0.5-0.5-1-1.1-1.5-1.6c-0.7-0.7-1.4-1.4-1.9-2v-0.7h-0.5v0.7
			c-0.5,0.6-1.2,1.3-1.9,2c-0.5,0.5-1,1-1.5,1.6l-0.1,0.1l0.1,0.2C34,25.2,23.2,34.8,23,34.9l0,0l-0.6,0.5l0.1,0.1
			c-0.7,0.6-3.6,2.9-5,3.7l-0.2-0.7l-0.4,0.1l0.5,1.7l0.4-0.1l-0.2-0.7c1.4-0.8,4.3-3.2,5-3.8l0.1,0.1l0.4-0.4l0.7,0.8v3.7V40v0.7
			h0.5v-0.2l0.5,0.6c-1,1-2.3,2.1-3.6,2.6l-0.3-0.8l-0.4,0.2l0.6,1.7l0.4-0.2l-0.2-0.6c1.3-0.6,2.7-1.7,3.7-2.7l1.6,1.7v0.7H27v-0.4
			l6,1.8c-1,1.2-2.2,2.5-3.5,3.2l-0.3-0.8l-0.4,0.2l0.7,1.6l0.4-0.2l-0.3-0.7c1.4-0.8,2.6-2.1,3.6-3.4l0.7,0.2v0.6h0.5v-0.7
			c2.9-1.8,5.5-5.7,7.4-10.5l2.5-0.2l2.5,0.2c1.9,4.8,4.5,8.7,7.4,10.5v0.7h0.5v-0.6l0.7-0.2c1,1.3,2.2,2.6,3.6,3.4l-0.3,0.7
			l0.4,0.2l0.7-1.6l-0.4-0.2l-0.3,0.8c-1.3-0.7-2.5-2-3.5-3.2l6-1.8v0.4h0.5V43l1.6-1.7c1,1,2.4,2.1,3.7,2.7L67.2,44.6z"/>
	</g>
	
		<pattern  id="SVGID_1_" xlink:href="#_x31_0_lpi_50_x25__2" patternTransform="matrix(0.1143 -1.000326e-02 1.000326e-02 0.1143 -6092.2324 -5704.6001)">
	</pattern>
	<path class="st4" d="M44.4,24.5c-0.3,2.8-1,5.6-1.9,8.2l1.9-0.1c0,0,0-2.1,0-3.5C44.4,27.7,44.4,24.5,44.4,24.5z"/>
	<g>
		<g>
			<polygon class="st2" points="29.2,30 29.1,30 27.3,30 27.3,30 27.2,29.9 27,29.4 27.2,29.3 27.4,29.8 29,29.8 29.2,29.3 
				29.4,29.4 29.2,29.9 			"/>
			<rect x="27.8" y="29" transform="matrix(0.9679 -0.2513 0.2513 0.9679 -6.5017 7.9484)" class="st2" width="0.2" height="0.9"/>
			<rect x="28.5" y="29.2" class="st2" width="0.2" height="0.6"/>
			<polygon class="st2" points="19.3,30 19.3,30 18.6,30 18.5,30 18.5,29.9 18.3,29.4 18.5,29.3 18.7,29.8 19.2,29.8 19.5,29.3 
				19.6,29.4 19.4,29.9 			"/>
			
				<rect x="18.7" y="29.4" transform="matrix(0.1756 -0.9845 0.9845 0.1756 -13.3936 43.0901)" class="st2" width="0.7" height="0.2"/>
			<polygon class="st2" points="74.1,30 74.2,29.8 75.5,29.8 75.5,30 			"/>
			<polygon class="st2" points="64.5,30 64.5,29.8 70.9,29.8 71,30 			"/>
			<polygon class="st2" points="29.8,29.8 62.7,29.8 62.7,30 29.7,30 			"/>
			<polygon class="st2" points="19.8,30 19.9,29.8 26.5,29.8 26.6,30 			"/>
			<polygon class="st2" points="13.2,30 13.2,29.8 17.9,29.8 18,30 			"/>
			<polygon class="st2" points="73.5,30 73.4,30 71.7,30 71.6,30 71.6,29.9 71.3,29.4 71.5,29.3 71.7,29.8 73.4,29.8 73.6,29.3 
				73.8,29.4 73.5,29.9 			"/>
			
				<rect x="72.5" y="29.3" transform="matrix(0.1789 -0.9839 0.9839 0.1789 30.9365 95.9255)" class="st2" width="0.9" height="0.2"/>
			<rect x="72.1" y="29.2" class="st2" width="0.2" height="0.6"/>
			<polygon class="st2" points="63.9,30 63.8,30 63.4,30 63.3,30 63.3,29.9 63.2,29.6 63.4,29.5 63.5,29.8 63.7,29.8 63.9,29.2 
				64.1,29.3 63.9,29.9 			"/>
		</g>
		<g>
			<path class="st5" d="M67.2,44.6l0.4,0.2l0.6-1.7l-0.4-0.2l-0.3,0.8c-1.3-0.6-2.6-1.7-3.6-2.6l0.5-0.6v0.2h0.5V40v-0.1v-3.7
				l0.7-0.8l0.4,0.4l0.1-0.1c0.8,0.6,3.6,3,5,3.8l-0.2,0.7l0.4,0.1l0.5-1.7l-0.4-0.1l-0.2,0.7c-1.4-0.8-4.2-3.1-5-3.7l0.1-0.1
				l-0.6-0.5l0,0c-0.2-0.1-10.9-9.8-17.7-16.9l0.1-0.2l-0.1-0.1c-0.5-0.5-1-1.1-1.5-1.6c-0.7-0.7-1.4-1.4-1.9-2v-0.7h-0.5v0.7
				c-0.5,0.6-1.2,1.3-1.9,2c-0.5,0.5-1,1-1.5,1.6l-0.1,0.1l0.1,0.2C34,25.2,23.2,34.8,23,34.9l0,0l-0.6,0.5l0.1,0.1
				c-0.7,0.6-3.6,2.9-5,3.7l-0.2-0.7l-0.4,0.1l0.5,1.7l0.4-0.1l-0.2-0.7c1.4-0.8,4.3-3.2,5-3.8l0.1,0.1l0.4-0.4l0.7,0.8v3.7V40v0.7
				h0.5v-0.2l0.5,0.6c-1,1-2.3,2.1-3.6,2.6l-0.3-0.8l-0.4,0.2l0.6,1.7l0.4-0.2l-0.2-0.6c1.3-0.6,2.7-1.7,3.7-2.7l1.6,1.7v0.7H27
				v-0.4l6,1.8c-1,1.2-2.2,2.5-3.5,3.2l-0.3-0.8l-0.4,0.2l0.7,1.6l0.4-0.2l-0.3-0.7c1.4-0.8,2.6-2.1,3.6-3.4l0.7,0.2v0.6h0.5v-0.7
				c2.9-1.8,5.5-5.7,7.4-10.5l2.5-0.2l2.5,0.2c1.9,4.8,4.5,8.7,7.4,10.5v0.7h0.5v-0.6l0.7-0.2c1,1.3,2.2,2.6,3.6,3.4l-0.3,0.7
				l0.4,0.2l0.7-1.6l-0.4-0.2l-0.3,0.8c-1.3-0.7-2.5-2-3.5-3.2l6-1.8v0.4h0.5V43l1.6-1.7c1,1,2.4,2.1,3.7,2.7L67.2,44.6z"/>
		</g>
		<g>
			<path class="st6" d="M55.3,44.4c0,0.1,0.1,0.1,0.1,0.2l6.4-1.9l0,0v-0.9l-6,1.8L55.3,44.4z"/>
			<path class="st6" d="M62.1,41.7v0.7l1.4-1.5c-0.1-0.1-0.2-0.2-0.3-0.4L62.1,41.7z"/>
			<path class="st6" d="M55.1,44.7L55.1,44.7C55.2,44.6,55.1,44.6,55.1,44.7L55.1,44.7z"/>
			<path class="st6" d="M64.4,39.1l-1.2,1.3c0.1,0.1,0.2,0.2,0.3,0.4l0.8-0.9V39.1z"/>
			<path class="st6" d="M25.3,40.9l1.4,1.5v-0.7l-1-1.1C25.5,40.7,25.4,40.8,25.3,40.9z"/>
			<path class="st6" d="M26.9,41.8v0.9l0,0l6.4,1.9c0-0.1,0.1-0.1,0.1-0.2l-0.6-0.9L26.9,41.8z"/>
			<path class="st6" d="M33.6,44.6L33.6,44.6L33.6,44.6C33.6,44.6,33.6,44.6,33.6,44.6z"/>
			<path class="st6" d="M24.3,39.1v0.7l0.8,0.9c0.1-0.1,0.2-0.2,0.3-0.4L24.3,39.1z"/>
			<path class="st6" d="M34.3,41c-0.1,0.1-0.2,0.2-0.4,0.4c-0.4,0.4-0.8,0.7-1.2,1.1l0.7,0.9l0.1,0.1l0.1,0.1l0.2,0.3l0.1,0.2
				l0.2,0.3l0.1,0.2l0.1,0.1c0,0,0,0,0.1,0c2.8-1.8,5.3-5.6,7.1-10.2c0.2-0.4,0.3-0.9,0.5-1.3c1-2.9,1.8-6.1,2.1-9.2
				C42.7,28.5,39.6,35.7,34.3,41z"/>
			<path class="st6" d="M55.3,43.6l0.1-0.1l0.7-0.9c-0.4-0.4-0.8-0.7-1.2-1.1c-0.1-0.1-0.2-0.2-0.4-0.4c-2.2-2.3-4.1-4.9-5.6-7.5
				c0,0-0.1-0.1-0.1-0.1c-2-3.5-3.3-6.9-4-9.4c0.3,3.1,1,6.3,2.1,9.3c0.2,0.4,0.3,0.9,0.5,1.3c1.8,4.6,4.4,8.5,7.1,10.2
				c0,0,0,0,0.1,0l0.1-0.1l0.1-0.2l0.2-0.3L55,44l0.2-0.3L55.3,43.6z"/>
			<path class="st2" d="M67.2,44.6l0.4,0.2l0.6-1.7l-0.4-0.2l-0.3,0.8c-1.3-0.6-2.6-1.7-3.6-2.6l0.5-0.6v0.2h0.5V40v-0.1v-3.7
				l0.7-0.8l0.4,0.4l0.1-0.1c0.8,0.6,3.6,3,5,3.8l-0.2,0.7l0.4,0.1l0.5-1.7l-0.4-0.1l-0.2,0.7c-1.4-0.8-4.2-3.1-5-3.7l0.1-0.1
				l-0.6-0.5l0,0c-0.2-0.1-10.9-9.8-17.7-16.9l0.1-0.2l-0.1-0.1c-0.5-0.5-1-1.1-1.5-1.6c-0.7-0.7-1.4-1.4-1.9-2v-0.7h-0.5v0.7
				c-0.5,0.6-1.2,1.3-1.9,2c-0.5,0.5-1,1-1.5,1.6l-0.1,0.1l0.1,0.2C34,25.2,23.2,34.8,23,34.9l0,0l-0.6,0.5l0.1,0.1
				c-0.7,0.6-3.6,2.9-5,3.7l-0.2-0.7l-0.4,0.1l0.5,1.7l0.4-0.1l-0.2-0.7c1.4-0.8,4.3-3.2,5-3.8l0.1,0.1l0.4-0.4l0.7,0.8v3.7V40v0.7
				h0.5v-0.2l0.5,0.6c-1,1-2.3,2.1-3.6,2.6l-0.3-0.8l-0.4,0.2l0.6,1.7l0.4-0.2l-0.2-0.6c1.3-0.6,2.7-1.7,3.7-2.7l1.6,1.7v0.7H27
				v-0.4l6,1.8c-1,1.2-2.2,2.5-3.5,3.2l-0.3-0.8l-0.4,0.2l0.7,1.6l0.4-0.2l-0.3-0.7c1.4-0.8,2.6-2.1,3.6-3.4l0.7,0.2v0.6h0.5v-0.7
				c2.9-1.8,5.5-5.7,7.4-10.5l2.5-0.2l2.5,0.2c1.9,4.8,4.5,8.7,7.4,10.5v0.7h0.5v-0.6l0.7-0.2c1,1.3,2.2,2.6,3.6,3.4l-0.3,0.7
				l0.4,0.2l0.7-1.6l-0.4-0.2l-0.3,0.8c-1.3-0.7-2.5-2-3.5-3.2l6-1.8v0.4h0.5V43l1.6-1.7c1,1,2.4,2.1,3.7,2.7L67.2,44.6z M64.4,38.7
				l-1.3,1.5c-0.2-0.2-0.4-0.4-0.5-0.6l0.1-0.1l-0.4-0.4l1.7-1.8l0.5-0.6V38.7z M62.9,40.4l-0.9,1v-1.8l0.2,0.3l0.1-0.1
				C62.5,39.9,62.7,40.2,62.9,40.4z M46.2,16.5c0.5,0.5,1,0.9,1.4,1.4l0,0L47,18.6c-0.7-1.1-1.3-2.2-1.8-3.1
				C45.6,15.8,45.9,16.1,46.2,16.5z M44.6,15.2c0.5,1.1,1.2,2.3,2,3.6l-2,0.2V15.2z M44.6,19.5l2.3-0.3c4.8,7.8,13.2,18,14.7,19.7
				L55,40.9C48.2,34.2,44.8,24.1,44.6,21V19.5z M32.7,43.3l-5.8-1.7v-2.2l6.5,1.9c-0.4,0.4-0.8,0.7-1.1,1l-0.2,0.1L32.7,43.3z
				 M27.2,39c1.5-1.8,9.9-12,14.7-19.8l2.2,0.4V21c-0.2,3.2-3.6,13.3-10.4,19.9L27.2,39z M42.2,18.7c0.8-1.3,1.4-2.5,2-3.5v3.8
				L42.2,18.7z M42.5,16.5c0.3-0.3,0.7-0.7,1-1c-0.5,0.9-1.1,2-1.7,3.1l-0.6-0.6l0,0C41.6,17.4,42.1,16.9,42.5,16.5z M24.3,39.8
				v-0.7l1.2,1.3c-0.1,0.1-0.2,0.2-0.3,0.4L24.3,39.8z M26.2,39.6c-0.2,0.2-0.3,0.4-0.5,0.6l-1.3-1.5v-2l0.5,0.6l1.7,1.8L26.2,39.6
				L26.2,39.6z M26.7,42.4l-1.4-1.5c0.1-0.1,0.2-0.2,0.3-0.4l1,1.1V42.4z M26.7,41.3l-0.9-1c0.2-0.2,0.4-0.4,0.6-0.6l0.1,0.1
				l0.2-0.3V41.3z M25.2,37L25.2,37L25.2,37l-1.3-1.5v0l-0.4-0.4c1.4-1.3,11.2-10.1,17.5-16.7l0.6,0.5c-4.9,7.8-13.4,18.2-14.7,19.8
				L25.2,37z M33.4,44.6l-6.4-1.9l0,0v-0.9l6,1.8l0.6,0.9C33.4,44.5,33.4,44.5,33.4,44.6z M33.6,44.6C33.6,44.6,33.6,44.6,33.6,44.6
				L33.6,44.6L33.6,44.6z M41.5,34.5c-1.8,4.6-4.4,8.5-7.1,10.2c0,0,0,0-0.1,0l-0.1-0.1l-0.1-0.2l-0.2-0.3L33.8,44l-0.2-0.3
				l-0.1-0.1l-0.1-0.1l-0.7-0.9c0.4-0.4,0.8-0.7,1.2-1.1c0.1-0.1,0.2-0.2,0.4-0.4c5.3-5.3,8.5-12.5,9.7-17c-0.3,3.1-1,6.3-2.1,9.2
				C41.8,33.7,41.6,34.1,41.5,34.5z M44.3,34.1L42,34.2c0.1-0.3,0.2-0.5,0.3-0.8l1.9-0.2V34.1z M42.5,32.9c0.9-2.6,1.5-5.4,1.9-8.2
				c0.3,2.8,1,5.6,1.9,8.2l-1.9-0.1L42.5,32.9z M44.5,34.1v-0.8l1.9,0.2c0.1,0.3,0.2,0.5,0.3,0.8L44.5,34.1z M54.8,44.2l-0.2,0.3
				l-0.1,0.2l-0.1,0.1c0,0,0,0-0.1,0c-2.8-1.8-5.3-5.6-7.1-10.2c-0.2-0.4-0.3-0.9-0.5-1.3c-1-2.9-1.8-6.1-2.1-9.3c0.7,2.5,2,6,4,9.4
				c0,0,0.1,0.1,0.1,0.1c1.5,2.6,3.4,5.3,5.6,7.5c0.1,0.1,0.2,0.2,0.4,0.4c0.4,0.4,0.8,0.7,1.2,1.1l-0.7,0.9l-0.1,0.1l-0.1,0.1
				L55,44L54.8,44.2z M55.1,44.7L55.1,44.7C55.1,44.6,55.2,44.6,55.1,44.7L55.1,44.7z M61.8,42.7L61.8,42.7l-6.4,1.9
				c0-0.1-0.1-0.1-0.1-0.2l0.6-0.9l6-1.8V42.7z M61.8,41.6l-5.8,1.7l0.6-0.8l-0.2-0.1c-0.4-0.3-0.8-0.7-1.1-1l6.5-1.9V41.6z
				 M47.3,19l0.5-0.6c6.3,6.7,16,15.4,17.5,16.7l-0.4,0.4v0L63.6,37l0,0l0,0L62,38.7C60.7,37.2,52.2,26.9,47.3,19z M62.1,42.4v-0.7
				l1-1.1c0.1,0.1,0.2,0.2,0.3,0.4L62.1,42.4z M63.6,40.7c-0.1-0.1-0.2-0.2-0.3-0.4l1.2-1.3v0.7L63.6,40.7z"/>
		</g>
	</g>
	<path class="st6" d="M44.5,33.3v0.8l2.2,0.2c-0.1-0.3-0.2-0.5-0.3-0.8L44.5,33.3z"/>
	<path class="st6" d="M42,34.2l2.2-0.2v-0.8l-1.9,0.2C42.3,33.7,42.2,34,42,34.2z"/>
</g>
</svg>
